<?xml version="1.0" encoding="UTF-8"?>
<svg width="127px" height="49px" viewBox="0 0 127 49" version="1.1" xmlns="http://www.w3.org/2000/svg" xmlns:xlink="http://www.w3.org/1999/xlink">
    <!-- Generator: Sketch 49.3 (51167) - http://www.bohemiancoding.com/sketch -->
    <title>Asset 1</title>
    <desc>Created with Sketch.</desc>
    <defs></defs>
    <g id="Page-1" stroke="none" stroke-width="1" fill="none" fill-rule="evenodd">
        <g id="Asset-1" fill-rule="nonzero">
            <polygon id="Shape" fill="#000000" points="52.366578 30.9674451 45.1444624 21.089341 45.1444624 30.9674451 41.9144046 30.9674451 41.9144046 15.8199422 45.2354913 15.8199422 52.253526 25.3353988 52.253526 15.8199422 55.4835838 15.8199422 55.4835838 30.9674451"></polygon>
            <polygon id="Shape" fill="#000000" points="58.2467514 30.9674451 58.2467514 15.8199422 68.9646705 15.8199422 68.9646705 18.6594566 61.4768092 18.6594566 61.4768092 21.8381272 68.8178497 21.8381272 68.8178497 24.6776416 61.4768092 24.6776416 61.4768092 28.1293988 68.9646705 28.1293988 68.9646705 30.9674451"></polygon>
            <path d="M78.458104,15.5630058 C73.871422,15.5630058 70.5297803,18.8341734 70.5297803,23.3988324 C70.5297803,27.9634913 73.8684855,31.2331908 78.458104,31.2331908 C83.0477225,31.2331908 86.3614682,27.9634913 86.3614682,23.3988324 C86.3614682,18.8341734 83.022763,15.5630058 78.458104,15.5630058 Z M78.458104,18.4245434 C79.3408956,18.4119153 80.2082357,18.6568114 80.9540578,19.1292832 L74.3250983,25.7582428 C73.9973608,25.015268 73.8321698,24.2108376 73.8405896,23.3988324 C73.8508671,20.5651908 75.6420809,18.4304162 78.458104,18.4304162 L78.458104,18.4245434 Z M78.458104,28.3716532 C77.5866524,28.3854584 76.7293792,28.1501284 75.9871098,27.693341 L82.5940462,21.0864046 C82.9037174,21.8160461 83.059176,22.6018369 83.050659,23.3944277 C83.0462543,26.2207283 81.252104,28.377526 78.458104,28.377526 L78.458104,28.3716532 Z" id="Shape" fill="#000000"></path>
            <path d="M87.3583815,28.8106474 L89.0615029,26.6523815 C90.0892486,27.7432601 91.7409827,28.3789942 93.218,28.3789942 C95.0576647,28.3789942 96.0795376,27.5832254 96.0795376,26.4483006 C96.0795376,25.2443699 95.1472254,24.6996647 93.0359422,24.6996647 C92.4002081,24.6996647 91.3783353,24.7216879 91.150763,24.7451792 L91.150763,21.8381272 C91.4238497,21.8616185 92.4721503,21.8616185 93.0359422,21.8616185 C94.7170405,21.8616185 95.8519653,21.3609595 95.8519653,20.2465896 C95.8519653,19.0441272 94.6025202,18.4524393 93.0359422,18.4524393 C91.592274,18.4448355 90.2041901,19.0085136 89.1745549,20.0204855 L87.559526,17.998763 C88.7854798,16.6127746 90.6941503,15.5909017 93.3501387,15.5909017 C96.8929249,15.5909017 99.0761503,17.1809711 99.0761503,19.7018844 C99.0761503,21.6105549 97.4420347,22.8585318 95.7609364,23.1536416 C97.3054913,23.3122081 99.3037225,24.5161387 99.3037225,26.7874566 C99.3037225,29.3993988 96.9648671,31.2390636 93.331052,31.2390636 C90.5620116,31.2405318 88.4727514,30.1731445 87.3583815,28.8106474 Z" id="Shape" fill="#000000"></path>
            <path d="M100.78074,23.4281965 C100.78074,18.8400462 103.369191,15.5923699 107.842821,15.5923699 C109.682486,15.5923699 111.22704,16.2060809 112.317919,17.1604162 L110.864393,19.635815 C110.046601,18.8635376 109.183295,18.4539075 107.842821,18.4539075 C105.618486,18.4539075 104.050439,20.3390867 104.050439,22.746948 C104.046564,22.8532015 104.054442,22.959558 104.073931,23.0640809 C104.777202,22.0363353 106.299734,21.1113642 107.957341,21.1113642 C110.682335,21.1113642 113.134243,22.8144855 113.134243,26.0401387 C113.134243,28.991237 110.773364,31.2405318 107.321607,31.2405318 C102.711434,31.2405318 100.78074,27.6977457 100.78074,23.4281965 Z M109.84252,26.1531908 C109.84252,24.5631214 108.480023,23.8818728 107.052925,23.8818728 C105.896203,23.8858219 104.803111,24.4118657 104.078335,25.3133757 C104.214879,26.7669017 105.031202,28.3789942 107.143954,28.3789942 C108.888185,28.3789942 109.84252,27.1970867 109.84252,26.1531908 Z" id="Shape" fill="#000000"></path>
            <path d="M114.360197,23.4047052 C114.360197,19.4992717 116.29089,15.5923699 120.627977,15.5923699 C124.965064,15.5923699 126.895757,19.4992717 126.895757,23.4047052 C126.895757,27.3101387 124.966532,31.2405318 120.627977,31.2405318 C116.289422,31.2405318 114.360197,27.3086705 114.360197,23.4047052 Z M123.609908,23.4047052 C123.609908,20.6151098 122.815607,18.4539075 120.635318,18.4539075 C118.47852,18.4539075 117.660728,20.6121734 117.660728,23.4047052 C117.660728,26.197237 118.47852,28.3789942 120.635318,28.3789942 C122.792116,28.3789942 123.602566,26.1987052 123.602566,23.4047052 L123.609908,23.4047052 Z" id="Shape" fill="#000000"></path>
            <path d="M19.0558728,0.559387283 C17.7986564,-0.174190054 16.245115,-0.17937187 14.9830329,0.54580238 C13.7209508,1.27097663 12.9430776,2.61575575 12.9437225,4.07134104 L12.9437225,9.21006936 L21.2332254,14.0375376 L21.2332254,33.3723699 L24.3164624,35.1679884 C25.5742454,35.9004822 27.12759,35.904952 28.3895676,35.1797088 C29.6515453,34.4544657 30.429728,33.1100956 30.4300809,31.6545665 L30.4300809,7.18100578 L19.0558728,0.559387283 Z" id="Shape" fill="#7ACFDA"></path>
            <path d="M12.9437225,28.5449017 L12.9437225,9.20566474 L7.42326012,5.99175723 C4.13153757,4.07427746 0,6.44690173 0,10.2569017 L0,39.9763699 L6.04901734,43.5000694 L13.8099653,48.0206821 C17.1016879,49.9381618 21.2332254,47.5655376 21.2332254,43.7555376 L21.2332254,33.3723699 L17.9253526,31.4446127 L12.9437225,28.5449017 Z" id="Shape" fill="#4A5CAA"></path>
            <polygon id="Shape" fill="#4387C7" points="12.9437225 9.20566474 12.9437225 28.5449017 17.9253526 31.4446127 21.2332254 33.3723699 21.2332254 14.0331329"></polygon>
        </g>
    </g>
</svg>