<?xml version="1.0" encoding="UTF-8"?>
<svg width="230px" height="120px" viewBox="0 0 230 120" version="1.1" xmlns="http://www.w3.org/2000/svg" xmlns:xlink="http://www.w3.org/1999/xlink" style="background: #FFFFFF;">
    <!-- Generator: Sketch 49.3 (51167) - http://www.bohemiancoding.com/sketch -->
    <title>Artboard</title>
    <desc>Created with Sketch.</desc>
    <defs></defs>
    <g id="Artboard" stroke="none" stroke-width="1" fill="none" fill-rule="evenodd">
        <g id="Asset-1" transform="translate(7.000000, 19.000000)" fill-rule="nonzero">
            <g id="Group" transform="translate(68.000000, 26.000000)" fill="#000000">
                <polygon id="Shape" points="18.9788288 27.6989853 6.3970415 10.4901491 6.3970415 27.6989853 0.769895301 27.6989853 0.769895301 1.3102274 6.55562471 1.3102274 18.7818787 17.8872885 18.7818787 1.3102274 24.4090249 1.3102274 24.4090249 27.6989853"></polygon>
                <polygon id="Shape" points="29.2227927 27.6989853 29.2227927 1.3102274 47.8946869 1.3102274 47.8946869 6.25700047 34.8499389 6.25700047 34.8499389 11.7946239 47.6389075 11.7946239 47.6389075 16.741397 34.8499389 16.741397 34.8499389 22.75477 47.8946869 22.75477 47.8946869 27.6989853"></polygon>
                <path d="M64.4333812,0.8626135 C56.4428336,0.8626135 50.621295,6.56137792 50.621295,14.5135586 C50.621295,22.4657393 56.437718,28.1619459 64.4333812,28.1619459 C72.4290443,28.1619459 78.2019848,22.4657393 78.2019848,14.5135586 C78.2019848,6.56137792 72.3855618,0.8626135 64.4333812,0.8626135 Z M64.4333812,5.84775347 C65.9713093,5.82575394 67.4823193,6.25239205 68.7816305,7.07549446 L57.2331918,18.6239331 C56.6622341,17.3295824 56.3744515,15.9281686 56.3891199,14.5135586 C56.4070244,9.57701673 59.5275328,5.85798465 64.4333812,5.85798465 L64.4333812,5.84775347 Z M64.4333812,23.176806 C62.9152084,23.2008562 61.4217361,22.7908834 60.1286143,21.9951053 L71.6386861,10.4850335 C72.1781701,11.756156 72.4489976,13.1250973 72.4341599,14.5058852 C72.4264865,19.4296382 69.3008626,23.1870371 64.4333812,23.1870371 L64.4333812,23.176806 Z" id="Shape"></path>
                <path d="M79.9387267,23.9415863 L82.9057674,20.1816295 C84.6962231,22.0820703 87.573741,23.1895949 90.1468815,23.1895949 C93.351797,23.1895949 95.1320215,21.8032707 95.1320215,19.8260962 C95.1320215,17.7287053 93.5078224,16.7797639 89.8297151,16.7797639 C88.7221904,16.7797639 86.9419659,16.8181308 86.5455079,16.8590555 L86.5455079,11.7946239 C87.0212575,11.8355486 88.8475223,11.8355486 89.8297151,11.8355486 C92.7583889,11.8355486 94.7355634,10.9633409 94.7355634,9.02197549 C94.7355634,6.92714243 92.558881,5.89635155 89.8297151,5.89635155 C87.3146727,5.88310476 84.8964649,6.8650994 83.1027176,8.62807525 L80.2891445,5.10599329 C82.4249022,2.69143601 85.7500341,0.911211581 90.3770829,0.911211581 C96.5490392,0.911211581 100.352478,3.68130219 100.352478,8.07303401 C100.352478,11.3981659 97.505654,13.5722905 94.5769802,14.0864071 C97.2677792,14.3626488 100.748936,16.4600396 100.748936,20.4169465 C100.748936,24.9672616 96.6743711,28.1721771 90.3438316,28.1721771 C85.5198326,28.1747349 81.8800922,26.3152189 79.9387267,23.9415863 Z" id="Shape"></path>
                <path d="M103.322077,14.5647145 C103.322077,6.5716091 107.831467,0.913769374 115.625065,0.913769374 C118.82998,0.913769374 121.520779,1.98292715 123.42122,3.64549307 L120.889004,7.9579333 C119.464313,6.6125338 117.96033,5.89890935 115.625065,5.89890935 C111.750007,5.89890935 109.018284,9.18311649 109.018284,13.3778982 C109.011533,13.5630046 109.025258,13.7482902 109.059208,13.9303816 C110.284391,12.139926 112.936824,10.528516 115.824573,10.528516 C120.571838,10.528516 124.843353,13.4955567 124.843353,19.1150295 C124.843353,24.2561949 120.730421,28.1747349 114.717048,28.1747349 C106.685576,28.1747349 103.322077,22.0027786 103.322077,14.5647145 Z M119.10878,19.3119796 C119.10878,16.541889 116.735147,15.3550728 114.248972,15.3550728 C112.233825,15.3619525 110.329528,16.2783836 109.066882,17.8489216 C109.304756,20.3811374 110.72689,23.1895949 114.407555,23.1895949 C117.446214,23.1895949 119.10878,21.130571 119.10878,19.3119796 Z" id="Shape"></path>
                <path d="M126.979111,14.5237898 C126.979111,7.72005848 130.34261,0.913769374 137.898333,0.913769374 C145.454055,0.913769374 148.817554,7.72005848 148.817554,14.5237898 C148.817554,21.3275211 145.456613,28.1747349 137.898333,28.1747349 C130.340052,28.1747349 126.979111,21.3249633 126.979111,14.5237898 Z M143.093212,14.5237898 C143.093212,9.66398171 141.709445,5.89890935 137.911122,5.89890935 C134.153723,5.89890935 132.729031,9.65886612 132.729031,14.5237898 C132.729031,19.3887135 134.153723,23.1895949 137.911122,23.1895949 C141.668521,23.1895949 143.080423,19.3912713 143.080423,14.5237898 L143.093212,14.5237898 Z" id="Shape"></path>
            </g>
            <g id="Group-2">
                <path d="M32.9686558,0.971694716 C30.7935396,-0.302580269 28.1057504,-0.311581446 25.9222161,0.948096791 C23.7386819,2.20777503 22.3928798,4.54375014 22.3939956,7.07220327 L22.3939956,15.9985327 L36.7357038,24.3841816 L36.7357038,57.9701336 L42.0700267,61.0892481 C44.246123,62.3616409 46.9335718,62.3694052 49.1169253,61.1096073 C51.3002788,59.8498093 52.6466165,57.5145448 52.647227,54.9861892 L52.647227,12.4739078 L32.9686558,0.971694716 Z" id="Shape" fill="#7ACFDA"></path>
                <path d="M22.3939956,49.5844847 L22.3939956,15.9908815 L12.8430175,10.4081001 C7.14799271,7.07730403 0,11.1987178 0,17.8169535 L0,69.4417421 L10.4654335,75.5626536 L23.8926864,83.4152732 C29.5877111,86.7460692 36.7357038,82.6246554 36.7357038,76.0064197 L36.7357038,57.9701336 L31.0127374,54.6214849 L22.3939956,49.5844847 Z" id="Shape" fill="#4A5CAA"></path>
                <polygon id="Shape" fill="#4387C7" points="22.3939956 15.9908815 22.3939956 49.5844847 31.0127374 54.6214849 36.7357038 57.9701336 36.7357038 24.3765304"></polygon>
            </g>
        </g>
    </g>
</svg>