<?xml version="1.0" standalone="no"?>
<!DOCTYPE svg PUBLIC "-//W3C//DTD SVG 20010904//EN"
 "http://www.w3.org/TR/2001/REC-SVG-20010904/DTD/svg10.dtd">
<svg version="1.0" xmlns="http://www.w3.org/2000/svg"
 width="1328.000000pt" height="1328.000000pt" viewBox="0 0 1328.000000 1328.000000"
 preserveAspectRatio="xMidYMid meet">
<metadata>
Created by potrace 1.11, written by Peter Selinger 2001-2013
</metadata>
<g transform="translate(0.000000,1328.000000) scale(0.100000,-0.100000)"
fill="#000000" stroke="none">
<path d="M7008 13275 c-2 -1 -25 -5 -53 -9 -27 -3 -59 -8 -70 -11 -74 -17
-145 -40 -194 -62 -31 -14 -61 -27 -67 -28 -6 -2 -29 -15 -52 -29 -23 -14 -44
-26 -48 -26 -3 0 -19 -10 -34 -22 -15 -13 -43 -34 -62 -48 -49 -36 -196 -188
-203 -210 -4 -11 -10 -20 -14 -20 -5 0 -14 -13 -21 -30 -7 -16 -16 -30 -19
-30 -4 0 -13 -16 -21 -35 -8 -19 -17 -35 -22 -35 -4 0 -8 -8 -8 -18 0 -10 -5
-23 -10 -28 -6 -6 -24 -50 -40 -98 -28 -81 -38 -119 -45 -171 -2 -11 -4 -20
-5 -20 -8 0 -10 -171 -13 -820 -2 -734 -2 -740 -22 -737 -11 2 -22 7 -25 10
-4 6 -44 29 -112 65 -13 6 -37 22 -55 35 -17 12 -34 22 -37 22 -3 0 -46 25
-97 55 -50 30 -93 55 -95 55 -2 0 -32 17 -66 38 -35 20 -75 44 -90 51 -16 8
-28 18 -28 23 0 4 -7 8 -15 8 -9 0 -21 5 -28 10 -18 16 -219 130 -229 130 -4
0 -8 5 -8 10 0 6 -5 10 -10 10 -6 0 -67 34 -136 75 -69 41 -128 75 -130 75 -2
0 -28 16 -58 35 -30 19 -57 35 -59 35 -3 0 -47 25 -98 56 -115 69 -267 147
-311 159 -5 2 -10 4 -13 5 -3 1 -8 3 -12 4 -5 1 -13 5 -20 9 -6 4 -23 8 -37 9
-14 1 -26 5 -26 9 0 4 -15 9 -32 12 -18 3 -62 10 -98 17 -100 19 -117 20 -240
19 -144 -1 -160 -2 -160 -9 0 -3 -12 -5 -27 -4 -14 0 -51 -5 -82 -13 -31 -7
-66 -15 -78 -17 -12 -2 -32 -10 -45 -17 -12 -7 -24 -12 -25 -11 -3 2 -23 -4
-50 -15 -10 -3 -20 -7 -23 -7 -19 -3 -100 -41 -100 -47 0 -4 -13 -10 -30 -14
-16 -4 -33 -11 -36 -16 -3 -6 -16 -15 -27 -20 -39 -18 -110 -66 -153 -104 -7
-5 -35 -30 -64 -55 -45 -38 -108 -107 -182 -198 -58 -72 -179 -308 -192 -374
-2 -7 -10 -38 -19 -68 -9 -30 -19 -71 -22 -90 -3 -19 -9 -46 -12 -60 -4 -14
-8 -1886 -10 -4161 l-3 -4137 47 -30 c27 -17 65 -40 86 -51 47 -27 80 -46 192
-111 50 -29 106 -61 125 -72 19 -11 60 -35 90 -53 58 -35 83 -49 250 -146 124
-71 133 -76 185 -109 22 -14 54 -32 70 -40 17 -8 32 -17 35 -20 3 -3 19 -12
35 -20 17 -8 46 -25 65 -38 19 -13 51 -31 70 -40 19 -9 37 -19 40 -23 3 -3 23
-16 45 -28 93 -51 156 -88 167 -99 7 -7 18 -12 24 -12 7 0 19 -6 26 -12 13
-12 29 -22 111 -65 17 -10 34 -21 35 -25 2 -5 8 -8 13 -8 5 0 38 -18 74 -40
36 -22 70 -40 75 -40 6 0 10 -5 10 -10 0 -6 3 -9 8 -8 4 1 18 -5 32 -14 57
-37 424 -248 432 -248 4 0 8 -4 8 -10 0 -5 5 -10 10 -10 6 0 40 -18 76 -40 36
-22 68 -40 70 -40 3 0 23 -12 47 -27 23 -15 51 -31 62 -37 17 -9 407 -237 455
-266 8 -5 80 -47 160 -93 80 -46 190 -111 245 -143 55 -33 105 -61 110 -63 6
-2 28 -16 50 -29 167 -106 398 -209 510 -226 20 -4 40 -8 44 -10 15 -10 142
-20 246 -20 97 0 139 3 245 18 31 5 195 50 230 64 14 5 28 10 32 11 10 2 192
94 198 101 10 11 69 50 75 50 4 0 12 6 20 12 7 7 28 24 46 38 86 65 279 279
279 309 0 6 4 11 9 11 11 0 125 230 142 285 6 22 14 47 17 55 8 21 15 53 27
108 3 12 7 32 10 43 16 75 19 313 19 1615 l1 1452 45 -26 c25 -14 62 -36 82
-49 21 -13 40 -23 44 -23 3 0 18 -8 32 -19 15 -10 44 -28 65 -40 63 -36 404
-234 505 -294 65 -38 222 -118 222 -113 0 3 28 -7 61 -20 34 -14 64 -23 66
-20 3 3 13 1 22 -3 9 -5 36 -12 61 -15 25 -3 56 -8 70 -11 32 -7 223 -7 241 0
8 3 32 7 54 9 22 3 55 9 73 15 17 5 32 8 32 6 0 -6 131 41 195 70 97 44 219
130 302 214 43 43 85 87 93 97 35 46 78 112 101 154 13 25 26 47 29 50 3 3 6
12 8 20 2 8 9 29 17 45 27 63 38 98 61 192 l23 98 1 3400 0 3400 -33 19 c-39
24 -55 33 -132 76 -33 18 -71 40 -85 49 -42 27 -228 135 -354 205 -28 15 -58
34 -67 42 -8 8 -19 14 -22 14 -4 0 -26 12 -50 27 -23 15 -44 28 -47 28 -3 0
-16 8 -30 17 -14 9 -37 22 -52 29 -16 7 -28 16 -28 21 0 4 -5 8 -11 8 -6 0
-93 48 -193 107 -99 58 -195 114 -212 124 -17 9 -42 23 -55 31 -13 7 -27 18
-31 23 -4 6 -8 6 -8 1 0 -5 -8 -2 -17 6 -10 8 -38 26 -63 39 -25 13 -49 28
-55 32 -21 16 -198 117 -205 117 -5 0 -15 6 -22 13 -7 7 -38 27 -68 44 -30 16
-71 39 -90 50 -19 12 -75 44 -125 73 -49 29 -110 64 -135 78 -25 14 -61 36
-80 49 -19 12 -40 23 -47 23 -7 0 -13 4 -13 9 0 5 -12 14 -27 20 -16 6 -46 22
-68 36 -22 14 -47 28 -55 32 -8 4 -17 9 -20 12 -5 6 -20 15 -99 59 -51 28
-188 107 -211 123 -8 5 -26 15 -40 22 -14 7 -43 24 -65 37 -22 14 -53 32 -70
40 -16 8 -36 20 -43 27 -14 13 -232 123 -253 127 -8 2 -21 6 -29 9 -21 9 -100
29 -130 34 -14 2 -36 6 -50 8 -28 6 -267 14 -272 10z"/>
</g>
</svg>
